# xmcd
#
# Track frame offsets: 
#        150
#        13261
#        26587
#        41039
#        53716
#        67407
#        81368
#        97376
#        111633
#        124482
#        137504
#        150895
#        163967
#        175800
#        189091
#        203120
#        216530
#        229195
#        243557
#        257914
#        272320
#        287034
#
# Disc length: 4011 seconds
#
# Revision: 0
# Processed by: cddbd v1.5.2PL0 Copyright (c) Steve Scherf et al.
# Submitted via: ExactAudioCopy v0.95b4
#
DISCID=530fa916
DTITLE=Leroy Carr - Sloppy Drunk [CD2]
DYEAR=1999
DGENRE=Blues
TTITLE0=Alabama Women Blues
TTITLE1=Papa's On The House Top
TTITLE2=Papa's Got Your Water On
TTITLE3=New How Long How Long Blues - part2
TTITLE4=Gone Mother Blues
TTITLE5=Midnight Hour Blues
TTITLE6=Blues Before Sunrise
TTITLE7=I Ain't Got No Money Now
TTITLE8=Southbound Blues
TTITLE9=Barrel House Woman
TTITLE10=I Believe I'll Make A Change
TTITLE11=Bo Bo Stomp
TTITLE12=Hustler's Blues
TTITLE13=It's Too Short #1
TTITLE14=Rocks In My Bed
TTITLE15=When The Sun Goes Down
TTITLE16=Bad Luck All The Time
TTITLE17=Big Four Blues
TTITLE18=Just A Rag
TTITLE19=Ain't It A Shame
TTITLE20=Going Back Home
TTITLE21=Six Cold Feet In The Ground
EXTD=
EXTT0=
EXTT1=
EXTT2=
EXTT3=
EXTT4=
EXTT5=
EXTT6=
EXTT7=
EXTT8=
EXTT9=
EXTT10=
EXTT11=
EXTT12=
EXTT13=
EXTT14=
EXTT15=
EXTT16=
EXTT17=
EXTT18=
EXTT19=
EXTT20=
EXTT21=
PLAYORDER=
